<svg version="1.1" id="svgSP" xmlns="http://www.w3.org/2000/svg" xmlns:xlink="http://www.w3.org/1999/xlink" x="0px" y="0px"
   viewBox="0 0 108 108" enable-background="new 0 0 108 108" xml:space="preserve">
<rect x="4" y="4" fill="none" stroke="#8C8D93" stroke-width="4" stroke-miterlimit="10" width="100" height="100"/>
<g>
  <path fill="#BF17A0" d="M18,66.7l5.9-7.1c3.8,3,8,4.6,12.5,4.6c2.9,0,4.4-1,4.4-2.6v-0.1c0-1.6-1.3-2.5-6.5-3.7
    c-8.2-1.9-14.5-4.2-14.5-12.1v-0.1c0-7.1,5.7-12.3,14.9-12.3c6.5,0,11.7,1.8,15.8,5.1l-5.3,7.5c-3.5-2.5-7.4-3.8-10.8-3.8
    c-2.6,0-3.8,1.1-3.8,2.5v0.1c0,1.8,1.3,2.5,6.7,3.7c8.9,1.9,14.4,4.8,14.4,12v0.1c0,7.9-6.2,12.5-15.6,12.5
    C29.3,73.1,22.8,71,18,66.7z"/>
  <path fill="#BF17A0" d="M56.8,33.9h16.5c9.7,0,16,5,16,13.5v0.1c0,9.1-7,13.9-16.6,13.9h-5.3v11H56.8V33.9z M72.5,53.1
    c3.8,0,6.1-2,6.1-5V48c0-3.3-2.3-5.1-6.2-5.1h-5v10.2H72.5z"/>
</g>
</svg>
